<svg width="24" height="24" viewBox="0 0 24 24" fill="none" xmlns="http://www.w3.org/2000/svg">
<path d="M2.25 5.25V18.75H9.75V17.25H3.75V7.40186L12 12.9009L20.25 7.40186V12.75H21.75V5.25H2.25ZM5.47705 6.75H18.5229L12 11.0991L5.47705 6.75ZM20.4111 14.5342C20.4111 14.5342 19.8414 15.2532 19.1162 15.9639C18.7536 16.3192 18.3536 16.6692 17.9971 16.9102C17.6517 17.1436 17.3578 17.2337 17.2734 17.2397C17.267 17.1817 17.25 17.0939 17.25 16.875C17.25 16.5938 17.286 16.2339 17.0918 15.7969C16.8976 15.3598 16.3125 15 15.75 15C15.2195 15 14.8055 15.2029 14.3569 15.438C13.9083 15.6731 13.4542 15.9685 13.0371 16.2612C12.2028 16.8466 11.5166 17.4272 11.5166 17.4272L12.4834 18.5728C12.4834 18.5728 13.1294 18.0284 13.8984 17.4888C14.283 17.219 14.6978 16.9519 15.0542 16.7651C15.3986 16.5846 15.694 16.514 15.7266 16.5088C15.7329 16.5662 15.75 16.6553 15.75 16.875C15.75 17.1562 15.714 17.5161 15.9082 17.9531C16.1024 18.3902 16.6875 18.75 17.25 18.75C17.8666 18.75 18.3607 18.4739 18.8364 18.1523C19.3122 17.8308 19.7637 17.4308 20.1665 17.0361C20.972 16.2468 21.5889 15.4658 21.5889 15.4658L20.4111 14.5342Z" fill="#CCBEE3"/>
</svg>
